<?xml version="1.0" encoding="utf-8"?>
<!-- Generator: Adobe Illustrator 19.1.0, SVG Export Plug-In . SVG Version: 6.00 Build 0)  -->
<svg version="1.1" id="Layer_1" xmlns="http://www.w3.org/2000/svg" xmlns:xlink="http://www.w3.org/1999/xlink" x="0px" y="0px"
	 viewBox="0 0 64 56" style="enable-background:new 0 0 64 56;" xml:space="preserve">
<style type="text/css">
	.st0{fill:#1B9ED9;}
</style>
<g>
	<path class="st0" d="M32,0c-1.1,0-2,0.9-2,2v27.2l-4.6-4.6C25,24.2,24.5,24,24,24c-0.5,0-1,0.2-1.4,0.6c-0.8,0.8-0.8,2,0,2.8l8,8
		c0.8,0.8,2,0.8,2.8,0l8-8c0.8-0.8,0.8-2,0-2.8c-0.8-0.8-2-0.8-2.8,0L34,29.2V2C34,0.9,33.1,0,32,0z"/>
</g>
<path class="st0" d="M62,56H2c-1.1,0-2-0.9-2-2s0.9-2,2-2h60c1.1,0,2,0.9,2,2S63.1,56,62,56z"/>
</svg>
