<svg xmlns="http://www.w3.org/2000/svg" viewBox="-715 797 26 31" enable-background="new -715 797 26 31"><style type="text/css">.st0{display:none;} .st1{display:inline;} .st2{fill:none;stroke:#B35047;} .st3{opacity:0.8;fill:#FFFFFF;} .st4{opacity:0.65;fill:#FFFFFF;} .st5{opacity:0.5;fill:#FFFFFF;}</style><g class="st1" id="Layer_1_1_"><path class="st2" d="M-732 426v512M-700 426v512M-668 426v512M-636 426v512M-604 426v512M-572 426v512M-540 426v512M-508 426v512M-476 426v512M-444 426v512M-412 426v512M-380 426v512M-348 426v512M-316 426v512M-284 426v512M-764 458h512M-764 490h512M-764 522h512M-764 554h512M-764 586h512M-764 618h512M-764 650h512M-764 682h512M-764 714h512M-764 746h512M-764 778h512M-764 810h512M-764 842h512M-764 874h512M-764 906h512"/><path class="st2" d="M-764 426h512v512h-512z"/></g><path id="XMLID_110_" class="st3" d="M-689 804.5l-13-7.5-13 7.5 13 3.8z"/><path id="XMLID_109_" class="st4" d="M-715 804.5v7.5l13-3.7z"/><path id="XMLID_108_" class="st4" d="M-702 808.3l13 3.7v-7.5z"/><path id="XMLID_106_" class="st5" d="M-702 808.3l-13 3.7v7.5l13 7.5 13-7.5V812z"/></svg>