<?xml version="1.0" encoding="utf-8"?>
<!-- Generator: Adobe Illustrator 19.0.0, SVG Export Plug-In . SVG Version: 6.00 Build 0)  -->
<svg version="1.1" id="Layer_1" xmlns="http://www.w3.org/2000/svg" xmlns:xlink="http://www.w3.org/1999/xlink" x="0px" y="0px"
	 viewBox="-958 511.8 26 37.8" style="enable-background:new -958 511.8 26 37.8;" xml:space="preserve">
<style type="text/css">
	.st0{display:none;}
	.st1{display:inline;}
	.st2{fill:none;stroke:#B35047;}
	.st3{opacity:0.8;fill:#FFFFFF;enable-background:new    ;}
	.st4{opacity:0.65;fill:#FFFFFF;enable-background:new    ;}
	.st5{fill:#002A3A;enable-background:new    ;}
	.st6{opacity:0.5;fill:#FFFFFF;enable-background:new    ;}
</style>
<g id="Layer_1_1_" class="st0">
	<g class="st1">
		<line class="st2" x1="-1690" y1="951" x2="-1690" y2="1463"/>
		<line class="st2" x1="-1658" y1="951" x2="-1658" y2="1463"/>
		<line class="st2" x1="-1626" y1="951" x2="-1626" y2="1463"/>
		<line class="st2" x1="-1594" y1="951" x2="-1594" y2="1463"/>
		<line class="st2" x1="-1562" y1="951" x2="-1562" y2="1463"/>
		<line class="st2" x1="-1530" y1="951" x2="-1530" y2="1463"/>
		<line class="st2" x1="-1498" y1="951" x2="-1498" y2="1463"/>
		<line class="st2" x1="-1466" y1="951" x2="-1466" y2="1463"/>
		<line class="st2" x1="-1434" y1="951" x2="-1434" y2="1463"/>
		<line class="st2" x1="-1402" y1="951" x2="-1402" y2="1463"/>
		<line class="st2" x1="-1370" y1="951" x2="-1370" y2="1463"/>
		<line class="st2" x1="-1338" y1="951" x2="-1338" y2="1463"/>
		<line class="st2" x1="-1306" y1="951" x2="-1306" y2="1463"/>
		<line class="st2" x1="-1274" y1="951" x2="-1274" y2="1463"/>
		<line class="st2" x1="-1242" y1="951" x2="-1242" y2="1463"/>
		<line class="st2" x1="-1722" y1="983" x2="-1210" y2="983"/>
		<line class="st2" x1="-1722" y1="1015" x2="-1210" y2="1015"/>
		<line class="st2" x1="-1722" y1="1047" x2="-1210" y2="1047"/>
		<line class="st2" x1="-1722" y1="1079" x2="-1210" y2="1079"/>
		<line class="st2" x1="-1722" y1="1111" x2="-1210" y2="1111"/>
		<line class="st2" x1="-1722" y1="1143" x2="-1210" y2="1143"/>
		<line class="st2" x1="-1722" y1="1175" x2="-1210" y2="1175"/>
		<line class="st2" x1="-1722" y1="1207" x2="-1210" y2="1207"/>
		<line class="st2" x1="-1722" y1="1239" x2="-1210" y2="1239"/>
		<line class="st2" x1="-1722" y1="1271" x2="-1210" y2="1271"/>
		<line class="st2" x1="-1722" y1="1303" x2="-1210" y2="1303"/>
		<line class="st2" x1="-1722" y1="1335" x2="-1210" y2="1335"/>
		<line class="st2" x1="-1722" y1="1367" x2="-1210" y2="1367"/>
		<line class="st2" x1="-1722" y1="1399" x2="-1210" y2="1399"/>
		<line class="st2" x1="-1722" y1="1431" x2="-1210" y2="1431"/>
		<rect x="-1722" y="951" class="st2" width="512" height="512"/>
	</g>
</g>
<g>
	<polygon id="XMLID_4_" class="st3" points="-932,519.3 -945,511.8 -958,519.3 -945,523.1 	"/>
	<polygon id="XMLID_3_" class="st4" points="-958,519.3 -958,526.8 -945,523.1 	"/>
	<polygon id="XMLID_2_" class="st4" points="-945,523.1 -932,526.8 -932,519.3 	"/>
	<g>
		<polygon class="st5" points="-958,534.3 -958,534.4 -958,541.8 -945,549.3 -932,541.8 -932,534.4 -932,534.3 -945,541.8 		"/>
		<polygon class="st6" points="-945,523.1 -958,526.8 -958,526.9 -958,534.3 -958,534.3 -945,541.8 -932,534.3 -932,534.3 
			-932,526.9 -932,526.8 		"/>
	</g>
</g>
</svg>
