<?xml version="1.0" encoding="utf-8"?>
<!-- Generator: Adobe Illustrator 19.0.0, SVG Export Plug-In . SVG Version: 6.00 Build 0)  -->
<svg version="1.1" id="Layer_1" xmlns="http://www.w3.org/2000/svg" xmlns:xlink="http://www.w3.org/1999/xlink" x="0px" y="0px"
	 viewBox="-715 797 26 31" style="enable-background:new -715 797 26 31;" xml:space="preserve">
<style type="text/css">
	.st0{display:none;}
	.st1{display:inline;}
	.st2{fill:none;stroke:#B35047;}
	.st3{opacity:0.8;fill:#FFFFFF;}
	.st4{opacity:0.65;fill:#FFFFFF;}
	.st5{opacity:0.5;fill:#FFFFFF;}
</style>
<g id="Layer_1_1_" class="st0">
	<g class="st1">
		<line class="st2" x1="-732" y1="426" x2="-732" y2="938"/>
		<line class="st2" x1="-700" y1="426" x2="-700" y2="938"/>
		<line class="st2" x1="-668" y1="426" x2="-668" y2="938"/>
		<line class="st2" x1="-636" y1="426" x2="-636" y2="938"/>
		<line class="st2" x1="-604" y1="426" x2="-604" y2="938"/>
		<line class="st2" x1="-572" y1="426" x2="-572" y2="938"/>
		<line class="st2" x1="-540" y1="426" x2="-540" y2="938"/>
		<line class="st2" x1="-508" y1="426" x2="-508" y2="938"/>
		<line class="st2" x1="-476" y1="426" x2="-476" y2="938"/>
		<line class="st2" x1="-444" y1="426" x2="-444" y2="938"/>
		<line class="st2" x1="-412" y1="426" x2="-412" y2="938"/>
		<line class="st2" x1="-380" y1="426" x2="-380" y2="938"/>
		<line class="st2" x1="-348" y1="426" x2="-348" y2="938"/>
		<line class="st2" x1="-316" y1="426" x2="-316" y2="938"/>
		<line class="st2" x1="-284" y1="426" x2="-284" y2="938"/>
		<line class="st2" x1="-764" y1="458" x2="-252" y2="458"/>
		<line class="st2" x1="-764" y1="490" x2="-252" y2="490"/>
		<line class="st2" x1="-764" y1="522" x2="-252" y2="522"/>
		<line class="st2" x1="-764" y1="554" x2="-252" y2="554"/>
		<line class="st2" x1="-764" y1="586" x2="-252" y2="586"/>
		<line class="st2" x1="-764" y1="618" x2="-252" y2="618"/>
		<line class="st2" x1="-764" y1="650" x2="-252" y2="650"/>
		<line class="st2" x1="-764" y1="682" x2="-252" y2="682"/>
		<line class="st2" x1="-764" y1="714" x2="-252" y2="714"/>
		<line class="st2" x1="-764" y1="746" x2="-252" y2="746"/>
		<line class="st2" x1="-764" y1="778" x2="-252" y2="778"/>
		<line class="st2" x1="-764" y1="810" x2="-252" y2="810"/>
		<line class="st2" x1="-764" y1="842" x2="-252" y2="842"/>
		<line class="st2" x1="-764" y1="874" x2="-252" y2="874"/>
		<line class="st2" x1="-764" y1="906" x2="-252" y2="906"/>
		<rect x="-764" y="426" class="st2" width="512" height="512"/>
	</g>
</g>
<polygon id="XMLID_110_" class="st3" points="-689,804.5 -702,797 -715,804.5 -702,808.3 "/>
<polygon id="XMLID_109_" class="st4" points="-715,804.5 -715,812 -702,808.3 "/>
<polygon id="XMLID_108_" class="st4" points="-702,808.3 -689,812 -689,804.5 "/>
<polygon id="XMLID_106_" class="st5" points="-702,808.3 -715,812 -715,812.1 -715,819.5 -702,827 -689,819.5 -689,812.1 -689,812 
	"/>
</svg>
