<svg xmlns="http://www.w3.org/2000/svg" viewBox="-958 511.8 26 37.8" enable-background="new -958 511.8 26 37.8"><style type="text/css">.st0{display:none;} .st1{display:inline;} .st2{fill:none;stroke:#B35047;} .st3{opacity:0.8;fill:#FFFFFF;enable-background:new ;} .st4{opacity:0.65;fill:#FFFFFF;enable-background:new ;} .st5{fill:#002A3A;enable-background:new ;} .st6{opacity:0.5;fill:#FFFFFF;enable-background:new ;}</style><g class="st1" id="Layer_1_1_"><path class="st2" d="M-1690 951v512M-1658 951v512M-1626 951v512M-1594 951v512M-1562 951v512M-1530 951v512M-1498 951v512M-1466 951v512M-1434 951v512M-1402 951v512M-1370 951v512M-1338 951v512M-1306 951v512M-1274 951v512M-1242 951v512M-1722 983h512M-1722 1015h512M-1722 1047h512M-1722 1079h512M-1722 1111h512M-1722 1143h512M-1722 1175h512M-1722 1207h512M-1722 1239h512M-1722 1271h512M-1722 1303h512M-1722 1335h512M-1722 1367h512M-1722 1399h512M-1722 1431h512"/><path class="st2" d="M-1722 951h512v512h-512z"/></g><path id="XMLID_4_" class="st3" d="M-932 519.3l-13-7.5-13 7.5 13 3.8z"/><path id="XMLID_3_" class="st4" d="M-958 519.3v7.5l13-3.7z"/><path id="XMLID_2_" class="st4" d="M-945 523.1l13 3.7v-7.5z"/><path class="st5" d="M-958 534.3v7.5l13 7.5 13-7.5v-7.5l-13 7.5z"/><path class="st6" d="M-945 523.1l-13 3.7v7.5l13 7.5 13-7.5v-7.5z"/></svg>