<svg width="107" height="35" viewBox="0 0 107 35" xmlns="http://www.w3.org/2000/svg"><title>logo</title><desc>Created with Sketch.</desc><g fill="#fff"><path d="M16.792 26.59c-.728 1.92-2.86 3.27-5.198 3.27-3.692 0-6.083-3.063-6.083-7.787 0-4.932 2.392-7.996 6.24-7.996 2.34 0 4.574 1.454 5.147 3.375.31.935.415 2.232.415 4.88 0 2.077-.156 3.375-.52 4.258zM17.364.06v11.42c-2.027-1.712-3.9-2.44-6.446-2.44C4.47 9.04 0 14.286 0 21.866c0 7.632 4.575 13.03 11.074 13.03 2.443 0 4.574-.83 6.29-2.49v1.92h5.25V.06h-5.25z"/><path d="M40.503 26.486c0 1.454-.208 2.025-.935 2.647-.936.83-2.548 1.403-3.9 1.403-2.547 0-4.627-1.662-4.627-3.687 0-1.662 1.093-2.65 3.536-3.22 1.612-.364 2.964-.52 5.927-.83v3.686zm5.303-.467v-9.087c0-2.96-.312-4.102-1.61-5.452-1.51-1.608-4.265-2.49-7.696-2.49-3.483 0-6.966.83-10.346 2.543l2.184 4.205c3.483-1.505 5.2-1.92 7.59-1.92 3.224 0 4.523 1.142 4.575 3.945v.78c-4.21.415-5.615.57-7.278.882-5.303 1.038-7.798 3.374-7.798 7.32 0 4.673 4.055 8.203 9.41 8.203 2.86 0 5.094-1.038 6.706-3.063.52 1.713 1.924 2.75 4.263 3.063l2.65-4.05c-2.39-.986-2.65-1.505-2.65-4.88z"/><path d="M57.55 25.81c0 3.064.624 3.79 3.224 3.79.884 0 1.87-.103 2.963-.31l.675 4.62c-1.714.467-3.638.726-5.302.726-4.887 0-6.81-2.024-6.81-7.06v-13.5h-4.524V9.56H52.3V1.928l5.25-1.87V9.56h6.5v4.517h-6.5V25.81"/><path d="M75.368 25.81c0 3.064.624 3.79 3.224 3.79.883 0 1.87-.103 2.963-.31l.675 4.62c-1.715.467-3.638.726-5.303.726-4.886 0-6.81-2.024-6.81-7.06v-13.5h-4.523V9.56h4.523V1.928l5.25-1.87V9.56h6.5v4.517h-6.5V25.81"/><path d="M94.52 29.86c-3.847 0-6.394-3.167-6.394-7.89 0-4.726 2.6-7.997 6.446-7.997 3.744 0 6.24 3.168 6.24 7.996 0 4.723-2.548 7.89-6.292 7.89zm-.207-20.923c-6.915 0-11.542 5.244-11.542 13.136C82.77 29.703 87.66 35 94.73 35c6.915 0 11.75-5.348 11.75-12.927 0-7.788-4.94-13.136-12.165-13.136z"/></g></svg>